<?xml version="1.0" encoding="utf-8"?>
<!-- Generator: Adobe Illustrator 25.4.1, SVG Export Plug-In . SVG Version: 6.00 Build 0)  -->
<svg version="1.1" id="katman_1" xmlns="http://www.w3.org/2000/svg" xmlns:xlink="http://www.w3.org/1999/xlink" x="0px" y="0px"
	 viewBox="0 0 707.24 134.28" style="enable-background:new 0 0 707.24 134.28;" xml:space="preserve">
<style type="text/css">
	.st0{fill:#26C40F;}
</style>
<polygon class="st0" points="123.85,18.72 133.43,0.44 0.21,0.44 26.33,52.68 87.72,53.11 67.69,91.42 53.76,63.56 31.99,63.56 
	66.82,134.09 85.98,95.78 105.13,134.09 173.05,0 151.28,0 105.13,91.42 97.29,74.88 118.19,33.96 38.09,33.96 29.38,18.28 "/>
<g>
	<g>
		<path class="st0" d="M268.67,73.46c0.48,1.6,0.72,3.28,0.72,4.96c0,1.68-0.24,3.36-0.72,4.96c-1.04,3.44-3.2,6.56-6.08,8.72
			c-2.96,2.24-6.56,3.44-10.32,3.44h-37.84v-13.6h37.84c1.92,0,3.52-1.6,3.52-3.52s-1.6-3.52-3.52-3.52h-20.72
			c-1.68,0-3.36-0.24-4.96-0.72c-2.72-0.8-5.2-2.32-7.2-4.32c-2-2-3.52-4.48-4.32-7.2c-0.48-1.6-0.72-3.28-0.72-4.96
			s0.24-3.36,0.72-4.96c0.8-2.72,2.32-5.2,4.32-7.2c2-2,4.48-3.52,7.2-4.32c0.4-0.16,0.8-0.24,1.2-0.32l0.56-0.16l13.36,13.36
			h-10.16c-1.92,0-3.52,1.6-3.52,3.52s1.6,3.52,3.52,3.52h20.72c0.08,0,0.16,0,0.24,0h0.08c0.08,0,0.16,0,0.24,0h0.16
			c0.16,0,0.32,0,0.48,0c0.08,0,0.16,0,0.24,0h0.08c0.08,0,0.16,0,0.24,0c0.16,0,0.32,0,0.48,0c0.08,0,0.16,0,0.24,0h0.08
			c0.16,0,0.32,0,0.48,0h0.24c0.16,0,0.32,0,0.48,0h0.08c0.16,0,0.32,0.08,0.48,0.16h0.08l0.16,0.08c0.08,0,0.16,0,0.24,0
			c0.16,0.08,0.32,0.16,0.48,0.24h0.08c0.32,0.08,0.64,0.16,0.96,0.24h0.08c0.16,0.08,0.32,0.16,0.48,0.24h0.08
			c0.24,0.08,0.48,0.16,0.72,0.24c0.08,0,0.16,0,0.24,0c0.16,0.08,0.32,0.16,0.48,0.24c0.24,0.16,0.48,0.32,0.72,0.48l0.4,0.24
			c0.16,0.08,0.32,0.16,0.48,0.24c0.16,0.08,0.32,0.16,0.48,0.24l0.08,0.08c0.32,0.24,0.64,0.48,0.96,0.72
			c0.08,0.08,0.24,0.16,0.4,0.32c0.08,0.08,0.16,0.16,0.24,0.24l0.16,0.16c0.08,0,0.16,0,0.24,0.08c0.08,0.08,0.16,0.16,0.24,0.24
			c0.24,0.24,0.48,0.48,0.72,0.72c0.08,0.08,0.16,0.16,0.24,0.24l0.16,0.16c0,0.08,0,0.16,0,0.24c0.08,0.08,0.16,0.16,0.24,0.24
			l0.08,0.08c0.08,0.16,0.16,0.32,0.24,0.48c0.08,0.08,0.16,0.16,0.24,0.24s0.16,0.16,0.24,0.24l0.08,0.16
			c0.24,0.48,0.48,0.96,0.72,1.44l0.08,0.08c0.16,0.32,0.32,0.64,0.48,0.96l0.08,0.16l0.24,0.72c0,0.08,0,0.16,0,0.24l0.24,0.56
			L268.67,73.46z M269.88,39.62v13.6h-21.44l-13.6-13.6H269.88z"/>
		<path class="st0" d="M292.67,55.94l7.92,13.12l-15.52,25.52h-15.92L292.67,55.94z M337.07,94.66h-15.92l-3.28-5.44L295.23,51.7
			l7.92-13.04L337.07,94.66z"/>
		<path class="st0" d="M404.2,39.62l-30.32,30.32v13.6l-1.84-1.84l-11.76-11.76l-30.32-30.32h19.28l0.32,0.32l17.52,17.52
			l17.84-17.84H404.2z M360.19,76.18l13.6,13.6v4.8h-13.6V76.18z"/>
		<path class="st0" d="M459.23,71.7v22.8h-13.6v-3.68c-4.16,2.48-8.96,3.76-13.84,3.76c-7.36,0-14.24-2.88-19.44-8.08
			s-8.08-12.08-8.08-19.44c0-4.16,0.88-8.16,2.64-11.84l0.64-1.44l10.56,10.56l-0.08,0.56c-0.08,0.72-0.16,1.44-0.16,2.16
			c0,3.68,1.44,7.12,4.08,9.76c2.64,2.64,6.08,4.08,9.76,4.08c2.88,0,5.6-0.88,7.92-2.48l-4.96-6.88L459.23,71.7z M419.87,59.78
			l-9.76-9.76l0.64-0.8c5.2-6.16,12.88-9.68,20.96-9.68c5.6,0,10.96,1.68,15.52,4.88c5.76,3.92,9.76,9.84,11.28,16.64l0.32,1.36
			h-14.08l-0.32-0.64c-0.72-1.68-1.76-3.2-3.04-4.48c-2.64-2.64-6.08-4.08-9.76-4.08c-3.68,0-7.12,1.44-9.76,4.08
			c-0.48,0.48-0.96,1.04-1.36,1.6L419.87,59.78z"/>
		<path class="st0" d="M500.67,59.38l-16.64,35.2l-25.6-53.92h14.96l11.68,24.56l8.24-17.44l1.04-2.16l1.68,3.68L500.67,59.38z
			 M529.07,40.58l-18.32,38.48l-7.36,15.44l-1.12-2.4l-6.32-13.2l-0.08-0.16l6.72-14.08l0.72-1.6l10.72-22.48H529.07z"/>
		<path class="st0" d="M544.59,55.94l7.92,13.12l-15.52,25.52h-15.92L544.59,55.94z M588.99,94.66h-15.92l-3.28-5.44L547.15,51.7
			l7.92-13.04L588.99,94.66z"/>
		<path class="st0" d="M653.07,94.66h-21.12l-0.32-0.32L610.51,73.3v0.08l-13.6-13.6V39.7h36.72c1.04,0,2.08,0.08,3.12,0.32
			c3.12,0.64,5.92,2.16,8.16,4.4c2.08,2.08,3.52,4.72,4.24,7.6c0.32,1.2,0.48,2.48,0.48,3.76c0,0.56,0,1.12-0.08,1.68
			c-0.16,4.4-1.92,8.48-4.96,11.52c-3.12,3.12-7.28,4.88-11.68,4.96h-0.16c-0.24,0-0.48,0-0.72,0L653.07,94.66z M597.07,65.78
			l13.6,13.6V94.5h-13.6V65.78z M631.15,60.26c0.32,0,0.64,0,0.96-0.08c0.24-0.08,0.48-0.16,0.72-0.24c0.64-0.24,1.2-0.64,1.68-1.12
			c0.08-0.08,0.16-0.16,0.24-0.24s0.16-0.16,0.24-0.24s0.08-0.16,0.08-0.24c0.08-0.16,0.16-0.32,0.24-0.48c0.24-0.64,0.4-1.28,0.4-2
			c0-0.08,0-0.16,0-0.24s0-0.16,0-0.24c0-0.16,0-0.32-0.08-0.48c-0.08-0.24-0.16-0.48-0.24-0.72h-23.84l6.48,6.48h13.04
			L631.15,60.26z"/>
		<path class="st0" d="M677.63,74.1l-16.64-16.64V39.7h45.92v13.6h-30.8l7.12,7.12h23.68v13.6L677.63,74.1z M706.91,81.06v13.6
			h-45.84V63.54l13.6,13.6v3.84L706.91,81.06z"/>
	</g>
</g>
</svg>
